<?xml version="1.0" encoding="utf-8"?>
<!-- Generator: Adobe Illustrator 15.0.0, SVG Export Plug-In  -->
<!DOCTYPE svg PUBLIC "-//W3C//DTD SVG 1.1//EN" "http://www.w3.org/Graphics/SVG/1.1/DTD/svg11.dtd" [
	<!ENTITY ns_flows "http://ns.adobe.com/Flows/1.0/">
]>
<svg version="1.1"
	 xmlns="http://www.w3.org/2000/svg" xmlns:xlink="http://www.w3.org/1999/xlink" xmlns:a="http://ns.adobe.com/AdobeSVGViewerExtensions/3.0/"
	 x="0px" y="0px" width="327px" height="266px" viewBox="0 0 327 266" overflow="visible" enable-background="new 0 0 327 266"
	 xml:space="preserve">
<defs>
</defs>
<path fill="#010101" d="M326.898,31.444c-12.027,5.336-24.953,8.941-38.521,10.562c13.846-8.302,24.479-21.443,29.488-37.104
	c-12.957,7.682-27.311,13.269-42.586,16.273C263.045,8.142,245.611,0,226.324,0c-37.037,0-67.068,30.025-67.068,67.063
	c0,5.257,0.594,10.373,1.738,15.283c-55.74-2.799-105.156-29.5-138.236-70.075c-5.773,9.909-9.082,21.423-9.082,33.722
	c0,23.265,11.842,43.791,29.838,55.819c-10.992-0.347-21.336-3.362-30.377-8.389c-0.008,0.28-0.008,0.563-0.008,0.847
	c0,32.492,23.117,59.596,53.801,65.764c-5.629,1.531-11.553,2.351-17.672,2.351c-4.322,0-8.521-0.42-12.615-1.204
	c8.533,26.645,33.303,46.037,62.648,46.574c-22.953,17.988-51.869,28.709-83.295,28.709c-5.408,0-10.752-0.317-15.996-0.935
	c29.678,19.026,64.936,30.133,102.807,30.133c123.361,0,190.816-102.196,190.816-190.82c0-2.909-0.062-5.8-0.193-8.679
	C306.539,56.707,317.906,44.899,326.898,31.444z"/>
</svg>
