<?xml version="1.0" encoding="utf-8"?>
<!-- Generator: Adobe Illustrator 15.0.0, SVG Export Plug-In  -->
<!DOCTYPE svg PUBLIC "-//W3C//DTD SVG 1.1//EN" "http://www.w3.org/Graphics/SVG/1.1/DTD/svg11.dtd" [
	<!ENTITY ns_flows "http://ns.adobe.com/Flows/1.0/">
]>
<svg version="1.1"
	 xmlns="http://www.w3.org/2000/svg" xmlns:xlink="http://www.w3.org/1999/xlink" xmlns:a="http://ns.adobe.com/AdobeSVGViewerExtensions/3.0/"
	 x="0px" y="0px" width="402px" height="236px" viewBox="0 0 402 236" overflow="visible" enable-background="new 0 0 402 236"
	 xml:space="preserve">
<defs>
</defs>
<path fill="#010101" d="M97.187,119.258c-9.008,0-16.308,7.299-16.308,16.307c0,9.02,7.3,16.312,16.308,16.312
	c9.009,0,16.309-7.293,16.309-16.312C113.496,126.557,106.195,119.258,97.187,119.258"/>
<path fill="#010101" d="M298.245,119.031c-9.008,0-16.313,7.295-16.313,16.312s7.305,16.312,16.313,16.312
	c9.01,0,16.304-7.295,16.304-16.312S307.255,119.031,298.245,119.031"/>
<path fill="#010101" d="M99.672,87.04c-26.794,0-48.517,21.727-48.517,48.524c0,26.812,21.723,48.52,48.517,48.52
	c26.802,0,48.525-21.707,48.525-48.52C148.197,108.767,126.474,87.04,99.672,87.04 M99.672,169.186
	c-18.566,0-33.618-15.053-33.618-33.621c0-18.572,15.052-33.628,33.618-33.628c18.574,0,33.626,15.056,33.626,33.628
	C133.298,154.133,118.247,169.186,99.672,169.186 M401.593,37.25h-66.81C300.709,14.322,254.183,0,200.82,0
	C147.439,0,97.717,14.312,63.644,37.25H0c10.378,12.142,18.06,28.57,19.973,39.854c-12,16.482-19.104,36.758-19.104,58.702
	c0,55.219,44.754,99.98,99.966,99.98c31.325,0,59.276-14.436,77.604-36.982c7.477,8.731,19.85,26.304,22.361,31.411
	c0,0,14.356-21.441,22.422-31.321c18.324,22.501,46.252,36.892,77.545,36.892c55.202,0,99.965-44.761,99.965-99.98
	c0-21.933-7.12-42.19-19.109-58.671C383.525,65.854,391.207,49.408,401.593,37.25 M100.835,216.29
	c-44.445,0-80.479-36.03-80.479-80.483c0-44.435,36.033-80.471,80.479-80.471c44.446,0,80.478,36.036,80.478,80.471
	C181.313,180.26,145.282,216.29,100.835,216.29 M100.988,35.857c28.604-12.456,64.118-19.175,99.833-19.175
	c35.776,0,68.191,6.742,96.828,19.247c-53.757,1.647-96.836,45.704-96.847,99.855C200.788,80.646,156.118,35.936,100.988,35.857
	 M300.768,216.29c-44.452,0-80.485-36.03-80.485-80.483c0-44.435,36.033-80.471,80.485-80.471c44.44,0,80.467,36.036,80.467,80.471
	C381.235,180.26,345.208,216.29,300.768,216.29 M300.731,86.819c-26.801,0-48.515,21.717-48.515,48.524
	c0,26.789,21.714,48.518,48.515,48.518c26.793,0,48.52-21.729,48.52-48.518C349.25,108.536,327.524,86.819,300.731,86.819
	 M300.731,168.963c-18.564,0-33.62-15.053-33.62-33.619c0-18.578,15.055-33.634,33.62-33.634c18.568,0,33.624,15.056,33.624,33.634
	C334.355,153.91,319.299,168.963,300.731,168.963"/>
</svg>
